<?xml version="1.0" encoding="UTF-8"?>
<svg width="1200pt" height="1200pt" version="1.1" viewBox="0 0 1200 1200" xmlns="http://www.w3.org/2000/svg">
 <path d="m133.49 1080h936c6.6367 0 12-5.375 12-12v-87.07c0-6.625-5.3633-12-12-12h-8.4844c1.5-3.7812 2.3867-7.8711 2.3867-12.191v-305.54c0-32.219-9.875-63.109-28.57-89.352l-21-29.449c-2.7969-3.9492-5.4102-7.4766-7.8242-10.738-12.938-17.473-18.289-24.707-18.289-47.762v-4.8477c10.152-1.5859 17.953-10.309 17.953-20.891v-63.949c0-11.699-9.5156-21.215-21.227-21.215h-128.74c-11.699 0-21.215 9.5156-21.215 21.215v63.949c0 10.586 7.8008 19.297 17.941 20.891v4.8477c0 23.062-5.3516 30.301-18.301 47.773-2.4102 3.2539-5.0156 6.7812-7.8242 10.727l-20.988 29.449c-18.707 26.242-28.586 57.133-28.586 89.352v305.53c0 4.3086 0.88672 8.3984 2.3867 12.191h-34.801c1.7773-4.1641 2.7734-8.7344 2.7734-13.535l0.003907-437.25c0-34.129-10.465-66.852-30.266-94.633l-22.332-31.344c-18.277-25.668-27.938-55.883-27.938-87.383v-73.391c10.727-1.3555 19.094-10.441 19.094-21.527v-68.039c0-12.023-9.7812-21.805-21.805-21.805l-137.03-0.003906c-12.023 0-21.805 9.7812-21.805 21.805v68.039c0 11.09 8.3633 20.172 19.094 21.527v73.391c0 31.5-9.6719 61.727-27.949 87.383l-22.332 31.344c-19.801 27.793-30.266 60.516-30.266 94.633v437.26c0 4.8008 0.99609 9.3828 2.7734 13.535h-35.543c0.96094-3.0469 1.6328-6.2383 1.6328-9.6016l-0.003907-252.99c0-30.672-9.4062-60.086-27.203-85.055l-19.895-27.938c-16.129-22.633-24.66-49.285-24.66-77.062v-18.695c9.6602-1.7656 17.016-10.199 17.016-20.363v-60.613c0-11.438-9.3008-20.734-20.734-20.734l-122.07-0.003906c-11.426 0-20.734 9.3008-20.734 20.734v60.613c0 10.152 7.3555 18.59 17.004 20.363v18.695c0 27.781-8.5195 54.434-24.648 77.074l-19.895 27.926c-17.797 24.973-27.215 54.383-27.215 85.055v253c0 3.3711 0.66016 6.5508 1.6328 9.6016h-7.5352c-6.6367 0-12 5.375-12 12l-0.003907 87.074c0.011719 6.625 5.375 12 12.012 12zm667.23-170.8h238.68v47.531c0 5.1016-4.1523 9.2539-9.2539 9.2539h-220.17c-5.1133 0-9.2539-4.1523-9.2539-9.2539zm238.67-24h-238.68v-43.895h238.68zm-180.91-498.2h123.18v58.379h-123.18zm-33.637 188.77 20.988-29.461c2.7109-3.8047 5.2422-7.2109 7.5703-10.367 13.859-18.707 23.016-31.066 23.016-62.051v-4.5234h87.277v4.5234c0 30.984 9.1562 43.332 22.992 62.039 2.3398 3.1562 4.8594 6.5625 7.5859 10.379l21 29.449c15.77 22.152 24.121 48.238 24.121 75.434v166.11h-238.68l-0.003906-166.1c0.011718-27.203 8.3516-53.277 24.133-75.43zm-101.77-50.496v220.22h-255.53v-220.22zm0 359.93h-255.53v-43.895h255.53zm0-67.895h-255.53v-47.809h255.53zm-255.53 91.895h255.53v46.188c0 5.8555-4.7539 10.609-10.621 10.609h-234.29c-5.8555 0-10.621-4.7539-10.621-10.609zm61.465-765.2h132.61v63.66h-132.61zm-35.652 293.43 22.332-31.344c21.203-29.746 32.398-64.777 32.398-101.3v-73.117h94.43v73.117c0 36.516 11.207 71.543 32.387 101.3l22.332 31.355c13.598 19.066 21.926 40.883 24.707 63.84h-253.28c2.7734-22.957 11.113-44.773 24.695-63.852zm-104.96 276.57v144.71h-225v-144.71zm-225 168.71h225v76.621c0 4.4883-3.6602 8.1484-8.1484 8.1484h-208.7c-4.4883 0-8.1484-3.6602-8.1484-8.1484zm54.758-462.84h115.51v54.086h-115.51zm-31.992 215.33 19.895-27.926c19.031-26.723 29.102-58.199 29.102-90.996v-18.324h81.492v18.324c0 32.809 10.066 64.273 29.113 90.996l19.895 27.926c11.688 16.402 18.973 35.113 21.59 54.805h-222.7c2.6289-19.691 9.9141-38.398 21.613-54.805zm871.33 420.8h-912v-63.07h912z" fill="#fff"/>
 <path d="m920.06 757.11c49.246 0 89.305-40.066 89.305-89.305 0-49.234-40.066-89.305-89.305-89.305-49.234 0-89.305 40.066-89.305 89.305 0.003907 49.234 40.059 89.305 89.305 89.305zm0-154.61c36.012 0 65.305 29.293 65.305 65.305s-29.293 65.305-65.305 65.305-65.305-29.293-65.305-65.305c0.003907-36.012 29.293-65.305 65.305-65.305z" fill="#fff"/>
</svg>

